Tiejili-SC.glyphspackage
{
color = 10;
glyphname = Hbar;
layers = (
{
layerId = master01;
shapes = (
{
ref = H;
},
{
closed = 1;
nodes = (
(792,604,l),
(792,617,l),
(12,660,l),
(12,552,l)
);
}
);
width = 810;
}
);
unicode = 294;
}
{
color = 10;
glyphname = eng;
layers = (
{
anchors = (
{
name = bottom;
pos = (343,0);
},
{
name = top;
pos = (343,557);
}
);
background = {
shapes = (
{
pos = (355,0);
ref = jdotless;
}
);
};
layerId = master01;
shapes = (
{
closed = 1;
nodes = (
(510,-120,o),
(580,-36,o),
(583,38,cs),
(598,384,ls),
(603,500,o),
(590,570,o),
(470,570,cs),
(389,570,o),
(292,521,o),
(230,451,c),
(235,557,l),
(60,557,l),
(86,0,l),
(209,0,l),
(228,401,l),
(282,436,o),
(347,452,o),
(379,452,cs),
(420,452,o),
(438,431,o),
(442,343,cs),
(457,41,ls),
(460,-24,o),
(427,-83,o),
(327,-191,c),
(333,-201,l)
);
}
);
width = 673;
}
);
metricLeft = n;
metricRight = n;
unicode = 331;
}
{
color = 10;
glyphname = jdotless;
kernLeft = j;
layers = (
{
layerId = master01;
shapes = (
{
closed = 1;
nodes = (
(150,-125,o),
(224,-30,o),
(227,38,cs),
(253,557,l),
(78,557,l),
(104,44,l),
(104,41,ls),
(104,-6,o),
(62,-102,o),
(-18,-191,c),
(-12,-201,l)
);
}
);
width = 323;
}
);
metricLeft = j;
unicode = 567;
}
{
glyphname = brevecomb;
layers = (
{
anchors = (
{
name = _top;
pos = (249,557);
},
{
name = top;
pos = (249,760);
}
);
layerId = master01;
shapes = (
{
closed = 1;
nodes = (
(442,810,l),
(386,767,o),
(314,742,o),
(250,742,cs),
(181,742,o),
(110,766,o),
(59,808,c),
(51,801,l),
(74,712,o),
(137,627,o),
(250,627,cs),
(365,627,o),
(427,714,o),
(449,804,c)
);
}
);
width = 500;
}
);
unicode = 774;
}
{
glyphname = dotaccentcomb;
layers = (
{
anchors = (
{
name = _top;
pos = (261,557);
},
{
name = top;
pos = (261,760);
}
);
layerId = master01;
shapes = (
{
closed = 1;
nodes = (
(351,752,l),
(191,780,l),
(244,644,l)
);
}
);
width = 500;
}
);
unicode = 775;
}
{
glyphname = hookabovecomb;
layers = (
{
anchors = (
{
name = _top;
pos = (250,557);
},
{
name = top;
pos = (250,785);
}
);
background = {
shapes = (
{
ref = ring;
}
);
};
layerId = master01;
shapes = (
{
closed = 1;
nodes = (
(233,840,o),
(181,830,o),
(110,800,c),
(153,704,l),
(201,745,o),
(233,768,o),
(256,768,cs),
(276,768,o),
(290,749,o),
(290,722,cs),
(290,698,o),
(267,678,o),
(211,642,c),
(214,632,l),
(320,655,o),
(382,682,o),
(382,724,cs),
(382,789,o),
(317,840,o),
(273,840,cs)
);
}
);
width = 500;
}
);
unicode = 777;
}
{
glyphname = horncomb;
layers = (
{
anchors = (
{
name = _topright;
pos = (149,557);
},
{
name = topright;
pos = (343,704);
}
);
layerId = master01;
shapes = (
{
closed = 1;
nodes = (
(209,719,l),
(215,637,o),
(196,557,o),
(149,557,c),
(145,535,l),
(276,535,o),
(348,592,o),
(343,704,c)
);
}
);
width = 500;
}
);
unicode = 795;
}
{
glyphname = commaaccentcomb;
layers = (
{
anchors = (
{
name = _bottom;
pos = (271,0);
},
{
name = bottom;
pos = (271,-227);
}
);
layerId = master01;
shapes = (
{
closed = 1;
nodes = (
(351,-137,l),
(261,-50,l),
(191,-153,l),
(269,-178,l),
(223,-273,l),
(234,-280,l)
);
}
);
width = 500;
}
);
unicode = 806;
}
{
glyphname = ogonekcomb;
layers = (
{
anchors = (
{
name = _ogonek;
pos = (257,20);
}
);
layerId = master01;
shapes = (
{
closed = 1;
nodes = (
(404,-161,l),
(286,-115,o),
(251,-82,o),
(245,-64,cs),
(244,-61,o),
(243,-55,o),
(243,-49,cs),
(243,-33,o),
(247,-9,o),
(257,20,c),
(171,50,l),
(144,14,o),
(125,-28,o),
(125,-65,cs),
(125,-81,o),
(128,-97,o),
(137,-110,cs),
(167,-155,o),
(270,-165,o),
(401,-172,c)
);
}
);
width = 500;
}
);
unicode = 808;
}
{
color = 10;
glyphname = "lowernumeral-greek";
layers = (
{
layerId = master01;
shapes = (
{
closed = 1;
nodes = (
(245,100,l),
(82,-212,l),
(263,-212,l),
(257,100,l)
);
}
);
width = 345;
}
);
unicode = 885;
}
{
color = 10;
glyphname = sigmafinal;
layers = (
{
layerId = master01;
shapes = (
{
closed = 1;
nodes = (
(611,81,l),
(482,184,l),
(433,129,o),
(382,93,o),
(314,93,cs),
(234,93,o),
(193,189,o),
(193,305,cs),
(193,441,o),
(240,498,o),
(299,498,cs),
(364,498,o),
(428,443,o),
(503,370,c),
(567,503,l),
(502,540,o),
(401,570,o),
(280,570,cs),
(145,570,o),
(44,452,o),
(44,258,cs),
(44,115,o),
(118,-12,o),
(243,-12,cs),
(331,-12,o),
(375,7,o),
(428,50,c),
(337,-197,l),
(348,-201,l)
);
}
);
width = 633;
}
);
unicode = 962;
}
{
color = 10;
glyphname = KaiSymbol;
kernRight = K;
layers = (
{
layerId = master01;
shapes = (
{
closed = 1;
nodes = (
(423,498,l),
(692,742,l),
(511,790,l),
(256,432,l),
(268,780,l),
(88,780,l),
(115,0,l),
(241,0,l),
(253,342,l),
(295,381,l),
(588,0,l),
(718,7,l)
);
},
{
closed = 1;
nodes = (
(479,-194,l),
(489,-201,l),
(718,7,l),
(589,7,l)
);
}
);
width = 730;
}
);
metricLeft = K;
metricRight = K;
unicode = 975;
}
{
color = 10;
glyphname = kaiSymbol;
layers = (
{
layerId = master01;
shapes = (
{
closed = 1;
nodes = (
(599,7,l),
(385,341,l),
(570,540,l),
(396,570,l),
(234,290,l),
(249,558,l),
(74,558,l),
(95,0,l),
(218,0,l),
(227,169,l),
(287,234,l),
(475,-5,l)
);
},
{
closed = 1;
nodes = (
(360,-194,l),
(370,-201,l),
(599,7,l),
(470,7,l)
);
}
);
width = 599;
}
);
metricLeft = k;
metricRight = k;
unicode = 983;
}
{
color = 10;
glyphname = "Dje-cy";
kernLeft = T;
layers = (
{
background = {
shapes = (
{
pos = (134,0);
ref = Germandbls;
}
);
};
layerId = master01;
shapes = (
{
ref = T;
},
{
closed = 1;
nodes = (
(455,0,l),
(624,12,o),
(833,79,o),
(833,262,cs),
(833,407,o),
(736,490,o),
(541,490,cs),
(492,490,o),
(431,475,o),
(377,456,c),
(374,394,l),
(406,400,o),
(430,401,o),
(455,400,cs),
(613,394,o),
(658,329,o),
(658,253,cs),
(658,154,o),
(601,67,o),
(449,18,c)
);
}
);
width = 866;
}
);
metricLeft = T;
metricRight = B;
unicode = 1026;
}
{
color = 10;
glyphname = "E-cy";
layers = (
{
layerId = master01;
shapes = (
{
ref = C;
},
{
closed = 1;
nodes = (
(205,371,l),
(488,326,l),
(488,473,l),
(205,404,l)
);
}
);
width = 737;
}
);
metricLeft = C;
metricRight = C;
unicode = 1028;
}
{
color = 10;
glyphname = "Yi-cy";
layers = (
{
layerId = master01;
shapes = (
{
ref = I;
},
{
closed = 1;
nodes = (
(361,908,l),
(209,934,l),
(259,805,l)
);
},
{
closed = 1;
nodes = (
(162,908,l),
(10,934,l),
(60,805,l)
);
}
);
width = 372;
}
);
unicode = 1031;
}
{
color = 10;
glyphname = "Nje-cy";
layers = (
{
layerId = master01;
shapes = (
{
closed = 1;
nodes = (
(564,-13,l),
(694,0,l),
(722,780,l),
(535,780,l)
);
},
{
closed = 1;
nodes = (
(564,-13,l),
(930,-13,o),
(1104,99,o),
(1104,270,cs),
(1104,416,o),
(1022,493,o),
(852,493,cs),
(803,493,o),
(746,487,o),
(681,473,c),
(679,386,l),
(707,389,o),
(736,391,o),
(760,391,cs),
(892,391,o),
(929,349,o),
(929,263,cs),
(929,181,o),
(910,76,o),
(658,28,c)
);
},
{
closed = 1;
nodes = (
(558,418,l),
(262,471,l),
(273,780,l),
(88,780,l),
(116,0,l),
(245,0,l),
(257,339,l),
(559,381,l)
);
}
);
width = 1113;
}
);
unicode = 1034;
}
{
color = 10;
glyphname = "Ushort-cy";
kernLeft = Y;
kernRight = Y;
layers = (
{
layerId = master01;
shapes = (
{
ref = "U-cy";
},
{
closed = 1;
nodes = (
(388,765,o),
(449,828,o),
(483,904,c),
(475,909,l),
(428,868,o),
(365,843,o),
(332,843,cs),
(297,843,o),
(234,868,o),
(187,909,c),
(179,904,l),
(213,828,o),
(273,765,o),
(330,765,cs)
);
}
);
width = 620;
}
);
metricLeft = "U-cy";
metricRight = "U-cy";
unicode = 1038;
}
{
color = 10;
glyphname = "Dzhe-cy";
layers = (
{
background = {
shapes = (
{
ref = "Tse-cy";
}
);
};
layerId = master01;
shapes = (
{
closed = 1;
nodes = (
(539,66,l),
(542,0,l),
(638,0,l),
(686,780,l),
(509,780,l),
(538,97,l),
(237,143,l),
(264,780,l),
(88,780,l),
(136,-9,l)
);
},
{
closed = 1;
nodes = (
(351,-129,l),
(438,-129,l),
(473,76,l),
(300,53,l)
);
}
);
width = 774;
}
);
unicode = 1039;
}
{
color = 10;
glyphname = "dje-cy";
layers = (
{
layerId = master01;
shapes = (
{
closed = 1;
nodes = (
(209,0,l),
(235,780,l),
(60,780,l),
(86,0,l)
);
},
{
closed = 1;
nodes = (
(427,664,l),
(427,677,l),
(9,720,l),
(9,612,l)
);
},
{
closed = 1;
nodes = (
(216,393,l),
(272,433,o),
(345,452,o),
(379,452,cs),
(420,452,o),
(438,431,o),
(442,343,cs),
(457,41,ls),
(460,-24,o),
(427,-83,o),
(327,-191,c),
(333,-201,l),
(510,-120,o),
(580,-36,o),
(583,38,cs),
(598,384,ls),
(603,500,o),
(590,570,o),
(470,570,cs),
(385,570,o),
(283,516,o),
(222,441,c)
);
}
);
width = 673;
}
);
metricLeft = "tshe-cy";
metricRight = "tshe-cy";
unicode = 1106;
}
{
color = 10;
glyphname = "e-cy";
layers = (
{
layerId = master01;
shapes = (
{
ref = c;
},
{
closed = 1;
nodes = (
(176,278,l),
(399,222,l),
(399,351,l),
(176,298,l)
);
}
);
width = 582;
}
);
metricLeft = c;
metricRight = c;
unicode = 1108;
}
{
color = 10;
glyphname = "yi-cy";
layers = (
{
layerId = master01;
shapes = (
{
ref = idotless;
},
{
closed = 1;
nodes = (
(311,722,l),
(174,746,l),
(219,630,l)
);
},
{
closed = 1;
nodes = (
(143,722,l),
(7,746,l),
(52,630,l)
);
}
);
width = 317;
}
);
unicode = 1111;
}
{
color = 10;
glyphname = "dzhe-cy";
layers = (
{
layerId = master01;
shapes = (
{
closed = 1;
nodes = (
(457,65,l),
(460,0,l),
(556,0,l),
(599,557,l),
(432,557,l),
(455,97,l),
(204,143,l),
(226,557,l),
(60,557,l),
(103,-12,l)
);
},
{
closed = 1;
nodes = (
(290,-90,l),
(377,-90,l),
(403,67,l),
(260,37,l)
);
}
);
width = 673;
}
);
unicode = 1119;
}
{
color = 10;
glyphname = "Geupturn-cy";
layers = (
{
layerId = master01;
shapes = (
{
closed = 1;
nodes = (
(253,0,l),
(267,663,l),
(610,628,l),
(573,899,l),
(560,899,l),
(480,758,l),
(268,705,l),
(270,780,l),
(88,780,l),
(125,0,l)
);
}
);
width = 645;
}
);
metricLeft = "Ge-cy";
metricRight = "Ge-cy";
unicode = 1168;
}
{
color = 10;
glyphname = "geupturn-cy";
kernLeft = r;
layers = (
{
layerId = master01;
shapes = (
{
closed = 1;
nodes = (
(222,0,l),
(243,452,l),
(512,403,l),
(486,644,l),
(473,644,l),
(411,543,l),
(246,506,l),
(248,557,l),
(68,557,l),
(94,0,l)
);
}
);
width = 527;
}
);
metricLeft = "ge-cy";
metricRight = "ge-cy";
unicode = 1169;
}
{
color = 10;
glyphname = "obarred-cy";
kernLeft = o;
layers = (
{
layerId = master01;
shapes = (
{
ref = o;
},
{
closed = 1;
nodes = (
(176,351,l),
(176,222,l),
(484,278,l),
(484,298,l)
);
}
);
width = 662;
}
);
metricLeft = o;
metricRight = o;
unicode = 1257;
}
{
color = 10;
glyphname = Germandbls;
layers = (
{
background = {
shapes = (
{
pos = (-15,0);
ref = B;
}
);
};
layerId = master01;
shapes = (
{
closed = 1;
nodes = (
(234,0,l),
(246,484,ls),
(250,641,o),
(284,739,o),
(375,739,cs),
(454,739,o),
(500,696,o),
(500,623,cs),
(500,546,o),
(424,468,o),
(277,403,c),
(277,378,l),
(294,378,ls),
(470,378,o),
(514,318,o),
(514,239,cs),
(514,153,o),
(423,71,o),
(269,19,c),
(275,1,l),
(517,11,o),
(688,117,o),
(688,255,cs),
(688,367,o),
(593,443,o),
(444,443,cs),
(438,443,l),
(561,483,o),
(648,549,o),
(648,636,cs),
(648,748,o),
(523,798,o),
(386,798,cs),
(232,798,o),
(77,685,o),
(88,466,cs),
(111,0,l)
);
}
);
width = 762;
}
);
unicode = 7838;
}
{
export = 0;
glyphname = brevecomb_gravecomb.case;
layers = (
{
anchors = (
{
name = _top;
pos = (251,780);
},
{
name = top;
pos = (251,1066);
}
);
layerId = master01;
shapes = (
{
closed = 1;
nodes = (
(383,969,l),
(213,1141,l),
(113,1049,l),
(377,960,l)
);
},
{
closed = 1;
nodes = (
(442,975,l),
(386,940,o),
(314,919,o),
(250,919,cs),
(181,919,o),
(110,939,o),
(59,973,c),
(51,968,l),
(74,894,o),
(137,824,o),
(250,824,cs),
(365,824,o),
(427,895,o),
(449,970,c)
);
}
);
width = 500;
}
);
}
{
export = 0;
glyphname = brevecomb_hookabovecomb.case;
layers = (
{
anchors = (
{
name = _top;
pos = (251,780);
},
{
name = top;
pos = (251,1076);
}
);
layerId = master01;
shapes = (
{
pos = (0,337);
ref = hookabovecomb;
scale = (1,0.95);
},
{
closed = 1;
nodes = (
(442,975,l),
(386,940,o),
(314,919,o),
(250,919,cs),
(181,919,o),
(110,939,o),
(59,973,c),
(51,968,l),
(74,894,o),
(137,824,o),
(250,824,cs),
(365,824,o),
(427,895,o),
(449,970,c)
);
}
);
width = 500;
}
);
}
{
export = 0;
glyphname = brevecomb_tildecomb.case;
layers = (
{
anchors = (
{
name = _top;
pos = (251,780);
},
{
name = top;
pos = (251,1066);
}
);
layerId = master01;
shapes = (
{
closed = 1;
nodes = (
(364,986,o),
(390,1008,o),
(432,1120,c),
(426,1125,l),
(400,1102,o),
(368,1084,o),
(321,1084,cs),
(277,1084,o),
(234,1128,o),
(182,1128,cs),
(148,1128,o),
(113,1094,o),
(70,995,c),
(76,989,l),
(103,1012,o),
(136,1031,o),
(181,1031,cs),
(216,1031,o),
(272,986,o),
(321,986,cs)
);
},
{
closed = 1;
nodes = (
(442,975,l),
(386,940,o),
(314,919,o),
(250,919,cs),
(181,919,o),
(110,939,o),
(59,973,c),
(51,968,l),
(74,894,o),
(137,824,o),
(250,824,cs),
(365,824,o),
(427,895,o),
(449,970,c)
);
}
);
width = 500;
}
);
}
{
export = 0;
glyphname = caroncomb.alt;
layers = (
{
anchors = (
{
name = _topright;
pos = (182,780);
}
);
layerId = master01;
shapes = (
{
closed = 1;
nodes = (
(210,557,l),
(317,780,l),
(182,780,l),
(200,557,l)
);
}
);
width = 500;
}
);
}
{
export = 0;
glyphname = circumflexcomb_hookabovecomb.case;
layers = (
{
anchors = (
{
name = _top;
pos = (251,780);
},
{
name = top;
pos = (251,1066);
}
);
layerId = master01;
shapes = (
{
closed = 1;
nodes = (
(250,874,l),
(423,802,l),
(429,810,l),
(295,969,l),
(206,969,l),
(71,810,l),
(77,802,l)
);
},
{
pos = (180,272);
ref = hookabovecomb;
}
);
width = 500;
}
);
}
{
export = 0;
glyphname = circumflexcomb_tildecomb.case;
layers = (
{
anchors = (
{
name = _top;
pos = (251,780);
},
{
name = top;
pos = (251,1066);
}
);
layerId = master01;
shapes = (
{
closed = 1;
nodes = (
(250,874,l),
(423,802,l),
(429,810,l),
(295,969,l),
(206,969,l),
(71,810,l),
(77,802,l)
);
},
{
closed = 1;
nodes = (
(364,986,o),
(390,1008,o),
(432,1120,c),
(426,1125,l),
(400,1102,o),
(368,1084,o),
(321,1084,cs),
(277,1084,o),
(234,1128,o),
(182,1128,cs),
(148,1128,o),
(113,1094,o),
(70,995,c),
(76,989,l),
(103,1012,o),
(136,1031,o),
(181,1031,cs),
(216,1031,o),
(272,986,o),
(321,986,cs)
);
}
);
width = 500;
}
);
}
{
color = 10;
glyphname = periodcentered.loclCAT.case;
layers = (
{
layerId = master01;
shapes = (
{
closed = 1;
nodes = (
(-25,468,l),
(-219,502,l),
(-155,338,l)
);
}
);
width = 0;
}
);
}
{
color = 10;
glyphname = periodcentered.loclCAT;
layers = (
{
layerId = master01;
shapes = (
{
closed = 1;
nodes = (
(147,438,l),
(-47,472,l),
(17,308,l)
);
}
);
width = 100;
}
);
}
{
export = 0;
glyphname = tonos.case;
layers = (
{
anchors = (
{
name = _topleft;
pos = (317,780);
}
);
layerId = master01;
shapes = (
{
closed = 1;
nodes = (
(210,580,l),
(317,780,l),
(182,780,l),
(200,580,l)
);
}
);
width = 500;
}
);
}
